<svg width="130" height="95" viewBox="0 0 130 95" fill="none" xmlns="http://www.w3.org/2000/svg">
<path d="M114.522 93.6812C117.686 95.5263 121.781 94.4685 123.292 91.1322C126.657 83.7001 128.591 75.6778 128.968 67.4878C129.447 57.0838 127.401 46.7184 123.004 37.2772C118.606 27.836 111.988 19.5997 103.716 13.2721C95.4431 6.94456 85.7617 2.71376 75.4985 0.941226C65.2354 -0.831303 54.6957 -0.0928621 44.78 3.09345C34.8643 6.27977 25.8673 11.8192 18.5579 19.2385C11.2485 26.6578 5.84384 35.7364 2.80582 45.6986C0.414298 53.5407 -0.454735 61.7468 0.222937 69.8773C0.527139 73.527 4.02986 75.8969 7.62908 75.2199C11.2283 74.5428 13.5515 71.0723 13.3445 67.4158C13.0041 61.4035 13.7249 55.3603 15.4916 49.5672C17.9051 41.6529 22.1987 34.4405 28.0056 28.5464C33.8125 22.6522 40.96 18.2514 48.8374 15.7201C56.7148 13.1888 65.088 12.6021 73.2414 14.0103C81.3948 15.4185 89.0861 18.7796 95.6582 23.8064C102.23 28.8333 107.488 35.3765 110.981 42.8769C114.475 50.3773 116.1 58.612 115.72 66.8774C115.441 72.9275 114.093 78.8624 111.756 84.4123C110.334 87.7875 111.359 91.8362 114.522 93.6812Z" fill="#F4561F"/>
</svg>
